<?xml version="1.0" encoding="utf-8"?>
<!-- Generator: Adobe Illustrator 25.1.0, SVG Export Plug-In . SVG Version: 6.00 Build 0)  -->
<svg version="1.1" xmlns="http://www.w3.org/2000/svg" xmlns:xlink="http://www.w3.org/1999/xlink" x="0px" y="0px"
	 viewBox="0 0 1200 1200" style="enable-background:new 0 0 1200 1200;" xml:space="preserve">
<style type="text/css">
	.st0{fill:#FFFFFF;}
	.st1{fill:#8DB9DA;}
	.st2{fill:#336D99;}
	.st3{fill:#85A7C2;}
	.st4{fill:#5C8AAD;}
	.st5{opacity:0.5;}
	.st6{fill:#418BC2;}
	.st7{fill:#265273;}
</style>
<g id="back">
	<g>
		<rect class="st0" width="1200" height="1200"/>
	</g>
</g>
<g id="icon">
	<g>
		<g>
			<g>
				<g>
					<path class="st1" d="M832.2,965l-14.1-358.6l-61.8-3.4c0,0,0,0-8,362C787.9,979,832.2,965,832.2,965z"/>
				</g>
				<g>
					<polygon class="st0" points="831.5,965.1 817.5,607.2 756.9,603.9 749,965 747.7,965 755.7,602.3 818.7,605.7 818.7,606.4 
						832.8,965 					"/>
				</g>
			</g>
			<g>
				<g>
					<path class="st1" d="M927.6,954.7l-15.5-373.3l-58.4,8.3c0,0,0,0-2.5,365C889.5,968,927.6,954.7,927.6,954.7z"/>
				</g>
				<g>
					<polygon class="st0" points="926.9,954.8 911.5,582.3 854.4,590.4 851.9,954.7 850.6,954.7 853.1,589.1 912.8,580.6 
						912.8,581.4 928.3,954.7 					"/>
				</g>
			</g>
		</g>
		<g>
			<g>
				<g>
					<g>
						<g>
							<path class="st0" d="M1038.9,864.3C815.7,903.7,681,901.9,440,867.9c27-98.9,52.1-217.4,75.7-307.7
								c185.1,35.1,279.1,29.1,447.6,0C986.8,650.5,1012,765.4,1038.9,864.3z"/>
						</g>
					</g>
					<g>
						<g>
							<path class="st2" d="M742.6,894.9c-84.5,0-175-7.7-302.8-25.8l-1.5-0.2l0.4-1.4c15.2-55.6,29.7-117.3,43.8-176.9
								c11.1-46.9,21.5-91.2,31.8-130.8l0.3-1.2l1.2,0.2c87.9,16.7,155.9,24.1,220.4,24.1c72.7,0,140.6-9.2,226.7-24.1l1.2-0.2
								l0.3,1.2c10.1,38.8,20.4,81.6,31.2,126.8c14.3,59.4,29,120.9,44.4,177.3l0.4,1.4l-1.4,0.3
								C922.5,886.2,833.8,894.9,742.6,894.9z M441.7,866.7c126.8,17.9,216.9,25.5,300.9,25.5c90.6,0,178.8-8.7,294.6-29.1
								c-15.2-56-29.9-117-44-176c-10.8-44.8-20.9-87.1-30.9-125.6c-85.7,14.8-153.4,23.9-225.9,23.9c-64.4,0-132.2-7.4-219.7-23.9
								c-10.2,39.2-20.5,83.1-31.5,129.5C471.2,750.3,456.7,811.5,441.7,866.7z"/>
						</g>
					</g>
				</g>
			</g>
			<g>
				<g>
					<g>
						<g>
							<path class="st3" d="M1038.9,819.1C815.7,858.5,681,856.8,440,822.7c27-98.9,52.1-217.4,75.7-307.7
								c185.1,35.1,279.1,29.1,447.6,0C986.8,605.3,1012,720.2,1038.9,819.1z"/>
						</g>
					</g>
					<g>
						<g>
							<path class="st2" d="M742.6,849.8c-84.5,0-175-7.7-302.8-25.8l-1.5-0.2l0.4-1.4c15.2-55.6,29.7-117.3,43.8-176.9
								c11.1-46.9,21.5-91.2,31.8-130.8l0.3-1.2l1.2,0.2c87.9,16.7,155.9,24.1,220.4,24.1c72.7,0,140.6-9.2,226.7-24.1l1.2-0.2
								l0.3,1.2c10.1,38.8,20.4,81.6,31.2,126.8c14.3,59.4,29,120.9,44.4,177.3l0.4,1.4l-1.4,0.3C922.5,841,833.8,849.8,742.6,849.8
								z M441.7,821.6c126.8,17.9,216.9,25.5,300.9,25.5c90.6,0,178.8-8.7,294.6-29.1c-15.2-56-29.9-117-44-176
								c-10.8-44.8-20.9-87.1-30.9-125.6c-85.7,14.8-153.4,23.9-225.9,23.9c-64.4,0-132.2-7.4-219.7-23.9
								c-10.2,39.2-20.5,83.1-31.5,129.5C471.2,705.2,456.7,766.3,441.7,821.6z"/>
						</g>
					</g>
				</g>
			</g>
			<g>
				<g>
					<g>
						<g>
							<g>
								<g>
									<path class="st2" d="M738.7,810.2c-94.8,0-189.3-15.6-302-39l-2.4-0.5l0.5-2.3c20.5-94.8,40.8-191.2,60.2-286.4l0.5-2.3
										l2.3,0.4c95.4,17.9,168.9,25.9,238.5,25.9c78.3,0,151.9-9.9,245.1-25.9l2.3-0.4l0.5,2.3c19.4,95.1,39.6,191.5,60.2,286.4
										l0.5,2.3l-2.4,0.5C907.2,799.3,822,810.2,738.7,810.2z M439.9,767c111.5,23.1,205,38.4,298.7,38.4
										c82.5,0,166.9-10.8,300.4-38.4c-20.2-93.5-40.1-188.3-59.2-281.9c-92.4,15.8-165.6,25.6-243.7,25.6
										c-69.3,0-142.5-7.9-237-25.5C480,578.9,460.1,673.7,439.9,767z"/>
								</g>
							</g>
						</g>
						<g>
							<g>
								<g>
									<path class="st0" d="M1041.9,768.9c-254,52.7-358.4,51.1-604.8,0c20.6-95.4,40.7-190.9,60.2-286.5
										c200.7,37.7,301.7,31.3,484.4,0C1001.2,578,1021.2,673.5,1041.9,768.9z"/>
								</g>
							</g>
						</g>
					</g>
				</g>
				<g>
					<g>
						<g>
							<g>
								<g>
									<g>
										<path class="st2" d="M537.6,754.4c-1.3,9.1-20.3,14-42.3,10.1c-22-3.9-38.2-15-36.4-24c1.9-9,20.7-12.7,42.2-8.9
											C522.6,735.3,539,745.2,537.6,754.4z"/>
									</g>
								</g>
							</g>
							<g>
								<g>
									<g>
										<path class="st2" d="M542.2,703.6c-1.3,8.4-18.2,13-37.8,9.5c-19.6-3.5-34-13.5-32.3-21.9c1.7-8.4,18.6-11.9,37.7-8.6
											C528.9,686,543.5,695.2,542.2,703.6z"/>
									</g>
								</g>
							</g>
							<g>
								<g>
									<g>
										<path class="st2" d="M547,652.9c-1.2,7.8-16.2,12-33.5,8.9c-17.3-3.1-30-12.2-28.5-19.9c1.6-7.7,16.5-11.1,33.4-8.1
											C535.4,636.8,548.2,645.1,547,652.9z"/>
									</g>
								</g>
							</g>
							<g>
								<g>
									<g>
										<path class="st2" d="M552,602.2c-1.1,7.1-14.3,10.9-29.4,8.3c-15.1-2.7-26.2-10.9-24.8-17.9c1.4-7,14.5-10.3,29.4-7.7
											C541.9,587.6,553.1,595.1,552,602.2z"/>
									</g>
								</g>
							</g>
							<g>
								<g>
									<g>
										<path class="st2" d="M557.2,551.5c-1,6.4-12.5,9.9-25.6,7.6c-13.1-2.3-22.7-9.6-21.4-15.9c1.3-6.3,12.7-9.4,25.5-7.1
											C548.6,538.4,558.2,545.1,557.2,551.5z"/>
									</g>
								</g>
							</g>
						</g>
						<g>
							<g>
								<g>
									<g>
										<path class="st2" d="M634.1,765.1c-0.7,9.2-19.3,15.4-41.4,13c-22.2-2.3-39.1-12.2-37.8-21.4c1.2-9.2,19.7-14.2,41.4-11.9
											C617.8,747.2,634.8,755.9,634.1,765.1z"/>
									</g>
								</g>
							</g>
							<g>
								<g>
									<g>
										<path class="st2" d="M635.1,714.2c-0.7,8.5-17.2,14.2-37,12.1c-19.7-2.1-34.8-11.1-33.7-19.6c1.1-8.5,17.6-13.2,36.9-11.2
											C620.6,697.6,635.7,705.7,635.1,714.2z"/>
									</g>
								</g>
							</g>
							<g>
								<g>
									<g>
										<path class="st2" d="M636.3,663.3c-0.6,7.8-15.3,13.1-32.7,11.2c-17.4-1.8-30.7-10-29.7-17.8c1-7.8,15.6-12.3,32.7-10.5
											C623.6,648,636.9,655.4,636.3,663.3z"/>
									</g>
								</g>
							</g>
							<g>
								<g>
									<g>
										<path class="st2" d="M637.7,612.4c-0.6,7.1-13.5,11.9-28.7,10.3c-15.3-1.6-26.9-9-26-16.1c0.9-7.1,13.7-11.3,28.7-9.7
											C626.7,598.5,638.3,605.2,637.7,612.4z"/>
									</g>
								</g>
							</g>
							<g>
								<g>
									<g>
										<path class="st2" d="M639.4,561.4c-0.5,6.4-11.7,10.8-24.9,9.4c-13.2-1.4-23.2-8-22.4-14.4c0.8-6.4,11.9-10.3,24.9-8.9
											C629.9,548.9,640,555,639.4,561.4z"/>
									</g>
								</g>
							</g>
						</g>
						<g>
							<g>
								<g>
									<g>
										<path class="st2" d="M730.9,769.1c-0.1,9.2-18.1,16.7-40.4,15.9c-22.2-0.8-39.8-9.5-39.2-18.7
											c0.6-9.2,18.6-15.5,40.4-14.7C713.4,752.4,730.9,759.9,730.9,769.1z"/>
									</g>
								</g>
							</g>
							<g>
								<g>
									<g>
										<path class="st2" d="M728.3,718.3c-0.1,8.5-16.2,15.4-36,14.7c-19.8-0.7-35.4-8.6-34.9-17.2c0.5-8.5,16.6-14.4,36-13.7
											C712.7,702.7,728.4,709.7,728.3,718.3z"/>
									</g>
								</g>
							</g>
							<g>
								<g>
									<g>
										<path class="st2" d="M726,667.4c-0.1,7.8-14.3,14.1-31.8,13.5c-17.5-0.6-31.3-7.8-30.8-15.7c0.5-7.8,14.7-13.3,31.8-12.7
											C712.2,653,726,659.5,726,667.4z"/>
									</g>
								</g>
							</g>
							<g>
								<g>
									<g>
										<path class="st2" d="M723.8,616.5c-0.1,7.2-12.6,12.8-27.9,12.3c-15.3-0.5-27.4-7.1-27-14.2c0.4-7.1,12.9-12.2,27.9-11.7
											C711.8,603.4,723.9,609.3,723.8,616.5z"/>
									</g>
								</g>
							</g>
							<g>
								<g>
									<g>
										<path class="st2" d="M721.9,565.6c-0.1,6.5-10.9,11.6-24.2,11.1c-13.3-0.5-23.7-6.3-23.3-12.8
											c0.4-6.5,11.2-11.1,24.2-10.6C711.6,553.7,722,559.1,721.9,565.6z"/>
									</g>
								</g>
							</g>
						</g>
						<g>
							<g>
								<g>
									<g>
										<path class="st2" d="M827.7,766.4c0.6,9.2-16.9,17.9-39.2,18.7c-22.2,0.8-40.3-6.7-40.4-15.9
											c-0.1-9.2,17.5-16.8,39.2-17.5C809.1,750.8,827.1,757.1,827.7,766.4z"/>
									</g>
								</g>
							</g>
							<g>
								<g>
									<g>
										<path class="st2" d="M821.6,715.8c0.5,8.5-15.1,16.5-34.9,17.2c-19.8,0.7-35.9-6.1-36-14.7c-0.1-8.5,15.6-15.6,34.9-16.2
											C805,701.3,821.1,707.2,821.6,715.8z"/>
									</g>
								</g>
							</g>
							<g>
								<g>
									<g>
										<path class="st2" d="M815.7,665.2c0.5,7.8-13.3,15.1-30.8,15.7c-17.5,0.6-31.8-5.6-31.8-13.5
											c-0.1-7.9,13.7-14.3,30.8-14.9C801,651.8,815.2,657.3,815.7,665.2z"/>
									</g>
								</g>
							</g>
							<g>
								<g>
									<g>
										<path class="st2" d="M810,614.5c0.4,7.1-11.7,13.7-27,14.2c-15.3,0.5-27.8-5.1-27.9-12.3c-0.1-7.2,12-13.1,27-13.6
											C797.1,602.3,809.6,607.4,810,614.5z"/>
									</g>
								</g>
							</g>
							<g>
								<g>
									<g>
										<path class="st2" d="M804.6,563.9c0.4,6.5-10.1,12.3-23.3,12.8c-13.3,0.5-24.1-4.6-24.2-11.1
											c-0.1-6.5,10.4-11.8,23.4-12.3C793.4,552.8,804.2,557.4,804.6,563.9z"/>
									</g>
								</g>
							</g>
						</g>
						<g>
							<g>
								<g>
									<g>
										<path class="st2" d="M924.2,756.8c1.2,9.2-15.7,19-37.8,21.4c-22.2,2.3-40.7-3.8-41.4-13c-0.7-9.2,16.3-18,37.9-20.2
											C904.5,742.6,923,747.6,924.2,756.8z"/>
									</g>
								</g>
							</g>
							<g>
								<g>
									<g>
										<path class="st2" d="M917.3,706.2c1.1,8-13.2,16.6-32,18.6c-18.7,2-34.5-3.4-35.1-11.5c-0.6-8.1,13.7-15.8,32-17.7
											C900.6,693.6,916.2,698.1,917.3,706.2z"/>
									</g>
								</g>
							</g>
							<g>
								<g>
									<g>
										<path class="st2" d="M905.1,656.7c1,7.8-12.3,16-29.7,17.8c-17.4,1.8-32.1-3.4-32.7-11.2c-0.6-7.8,12.7-15.2,29.8-17
											C889.5,644.4,904.1,648.9,905.1,656.7z"/>
									</g>
								</g>
							</g>
							<g>
								<g>
									<g>
										<path class="st2" d="M895.9,606.6c0.9,7.1-10.7,14.5-26,16.1c-15.3,1.6-28.1-3.2-28.7-10.3c-0.6-7.1,11.1-13.9,26-15.5
											C882.2,595.3,895,599.5,895.9,606.6z"/>
									</g>
								</g>
							</g>
							<g>
								<g>
									<g>
										<path class="st2" d="M886.9,556.5c0.8,6.4-9.2,13-22.4,14.4c-13.2,1.4-24.4-2.9-24.9-9.4c-0.5-6.4,9.5-12.5,22.5-13.9
											C875,546.2,886.1,550,886.9,556.5z"/>
									</g>
								</g>
							</g>
						</g>
						<g>
							<g>
								<g>
									<g>
										<path class="st2" d="M1020,740.4c1.9,9-14.4,20.1-36.4,24c-22,3.9-41-0.9-42.3-10.1c-1.3-9.1,15-19.1,36.5-22.9
											C999.3,727.7,1018.2,731.4,1020,740.4z"/>
									</g>
								</g>
							</g>
							<g>
								<g>
									<g>
										<path class="st2" d="M1006.9,691.2c1.7,8.4-12.7,18.4-32.3,21.9c-19.6,3.5-36.6-1-37.8-9.5c-1.3-8.4,13.3-17.6,32.4-21
											C988.3,679.3,1005.2,682.8,1006.9,691.2z"/>
									</g>
								</g>
							</g>
							<g>
								<g>
									<g>
										<path class="st2" d="M994,641.9c1.6,7.7-11.2,16.8-28.5,19.9c-17.3,3.1-32.3-1.1-33.5-8.9c-1.2-7.8,11.6-16.1,28.6-19.1
											C977.5,630.8,992.4,634.2,994,641.9z"/>
									</g>
								</g>
							</g>
							<g>
								<g>
									<g>
										<path class="st2" d="M981.2,592.6c1.4,7-9.7,15.2-24.8,17.9c-15.1,2.7-28.3-1.2-29.4-8.3c-1.1-7.1,10.1-14.6,24.9-17.3
											C966.7,582.3,979.8,585.6,981.2,592.6z"/>
									</g>
								</g>
							</g>
							<g>
								<g>
									<g>
										<path class="st2" d="M968.7,543.2c1.3,6.3-8.3,13.6-21.4,15.9c-13.1,2.3-24.6-1.2-25.6-7.6c-1-6.4,8.6-13.2,21.5-15.4
											C956.1,533.8,967.5,536.9,968.7,543.2z"/>
									</g>
								</g>
							</g>
						</g>
					</g>
				</g>
			</g>
		</g>
		<g>
			<g>
				<g>
					<g>
						<g>
							<path class="st0" d="M669.1,748.4c-67.4-5.1-139.4-17.2-231-36.2c20.6-95.4,40.7-190.9,60.2-286.5
								c200.7,37.7,301.7,31.3,484.4,0c11,54.2,21.8,108.4,33.7,162.4C1031,654.6,782.8,756.9,669.1,748.4z"/>
						</g>
					</g>
					<g>
						<g>
							<path class="st2" d="M683.2,750.2c-5,0-9.7-0.2-14.2-0.5c-62-4.7-131.1-15.5-231.2-36.2l-1.3-0.3l0.3-1.3
								c20.5-94.9,40.8-191.3,60.2-286.5l0.3-1.3l1.3,0.2c95.4,17.9,169,25.9,238.6,25.9c78.4,0,152-9.9,245.3-25.9l1.3-0.2l0.3,1.3
								c2.2,10.7,4.3,21.4,6.5,32.1c8.7,42.8,17.6,87,27.2,130.3c2.3,10.7-1.7,22.6-12,35.4c-22.4,27.8-75.5,59.9-142.1,85.9
								C797.7,734.8,730.2,750.2,683.2,750.2z M439.6,711.1c99.2,20.5,167.9,31.3,229.5,35.9c4.4,0.3,9.1,0.5,14,0.5
								c100.3,0,274-68.3,320.4-126c9.8-12.1,13.6-23.3,11.4-33.1c-9.5-43.4-18.5-87.6-27.2-130.4c-2.1-10.3-4.2-20.5-6.3-30.8
								c-92.9,15.9-166.3,25.7-244.5,25.7c-69.5,0-142.9-7.9-237.8-25.7C480.1,521.5,460,617,439.6,711.1z"/>
						</g>
					</g>
				</g>
			</g>
			<g>
				<g>
					<g>
						<g>
							<path class="st0" d="M911.8,586.9c-10.1,71.6-139.3,171.2-260.6,160c-62.3-5.8-129.5-17.4-213-34.7
								c20.6-95.4,40.7-190.9,60.2-286.5c200.7,37.7,301.7,31.3,484.4,0c11,54.2,22.3,108.3,33.7,162.5
								C1025.1,629.5,945.1,617.3,911.8,586.9z"/>
						</g>
					</g>
					<g>
						<g>
							<path class="st2" d="M670.2,749.1c-6.5,0-12.9-0.3-19.2-0.9c-57.8-5.3-121.5-15.7-213.2-34.7l-1.3-0.3l0.3-1.3
								c20.5-94.9,40.8-191.3,60.2-286.5l0.3-1.3l1.3,0.2c95.4,17.9,169,25.9,238.6,25.9c78.4,0,152-9.9,245.3-25.9l1.3-0.2l0.3,1.3
								c11,53.8,22.3,108.5,33.7,162.4c1.6,7.5,0.4,13.7-3.4,18.4c-5.1,6.3-14.9,9.7-28.2,9.7c-24.4,0-55.4-11.3-73.4-26.5
								c-5.9,33.1-36.7,72.8-81.3,104.4C781.9,728.9,723.2,749.1,670.2,749.1C670.2,749.1,670.2,749.1,670.2,749.1z M439.6,711.1
								c90.8,18.8,154.2,29.1,211.6,34.4c6.2,0.6,12.6,0.9,19,0.9c0,0,0,0,0,0c112.1,0,230.4-90,240.2-159.7l0.4-2.5l1.9,1.7
								c17.1,15.6,48.7,27.4,73.4,27.4c12.5,0,21.5-3,26.2-8.7c3.3-4.1,4.3-9.5,2.9-16.2c-11.3-53.5-22.5-107.8-33.4-161.2
								c-92.9,15.9-166.3,25.7-244.5,25.7c-69.5,0-142.9-7.9-237.8-25.7C480.1,521.5,460,617,439.6,711.1z"/>
						</g>
					</g>
				</g>
			</g>
		</g>
		<g>
			<g>
				<g>
					<g>
						<g>
							<path class="st0" d="M601.6,312.6c0,0,6.6,21,17,44.6c22,49.9,53,125.9-11.2,129.5c-64.5,3.6-36.1-76.8-15.3-129.1
								C601.8,333.2,601.6,312.6,601.6,312.6z"/>
						</g>
					</g>
				</g>
				<g>
					<g>
						<g>
							<g>
								<path class="st4" d="M601.6,312.6c0,0,4,19.6,14.4,43.3c22,49.9,52,125.9-12.3,129.5c-64.5,3.6-36.1-76.8-15.3-129.1
									C598.1,331.8,601.6,312.6,601.6,312.6z"/>
							</g>
						</g>
					</g>
					<g>
						<g>
							<g>
								<path class="st0" d="M599.7,486.4c-14.2,0-24.4-4.5-30.4-13.3c-15.9-23.4,0.3-72.4,18.2-117.3c9.6-24,13.1-43.2,13.1-43.4
									l0.9-5.2l1,5.1c0,0.2,4.1,19.8,14.3,43.1c18.8,42.6,35.9,89.5,20.8,114.1c-6.3,10.2-17.7,15.8-33.9,16.7
									C602.4,486.4,601,486.4,599.7,486.4z M601.6,317.2c-1.6,7.1-5.4,22-12.3,39.3C571.6,401,555.6,449.4,571,472
									c6.1,9,17.1,13.2,32.7,12.3c15.6-0.9,26.4-6.2,32.3-15.8c14.6-23.9-2.4-70.2-20.9-112.3
									C607.6,339.4,603.4,324.4,601.6,317.2z"/>
							</g>
						</g>
					</g>
				</g>
				<g>
					<g>
						<g>
							<path class="st0" d="M581,417.3c0,0-5,36.2,6,48.7C582.8,466.6,558,460.9,581,417.3z"/>
						</g>
					</g>
				</g>
			</g>
			<g>
				<g>
					<g>
						<g>
							<path class="st0" d="M681.2,611c-0.7,14.4-21.1,12.8-46.4,11.7c-25.3-1.1-45.8-1.4-45.2-15.8c0.7-14.4,21.7-25.2,47-24.1
								C661.9,584,681.8,596.6,681.2,611z"/>
						</g>
					</g>
				</g>
				<g>
					<g>
						<g>
							<g>
								<path class="st4" d="M678.3,611.7c-0.7,14.4-21.1,12.8-46.4,11.7c-25.3-1.1-45.8-1.4-45.2-15.8c0.7-14.4,21.7-25.2,47-24.1
									C659,584.6,679,597.3,678.3,611.7z"/>
							</g>
						</g>
					</g>
					<g>
						<g>
							<g>
								<path class="st0" d="M663.8,624.7c-7.6,1-17.4,0.6-28.6,0.1l-6.5-0.3c-18.9-0.8-33.9-1.5-40.1-8.3c-2.1-2.3-3.1-5.2-2.9-8.6
									c0.5-12.1,14.3-22,34.2-24.6c4.5-0.6,9.3-0.8,14-0.6c12.4,0.6,24,3.9,32.6,9.3c8.8,5.6,13.5,12.7,13.1,20.2
									C679.1,621.5,670.3,623.8,663.8,624.7z M620.1,585.3c-18.4,2.5-31.6,11.6-32.1,22.3c-0.1,2.8,0.6,5.1,2.3,6.9
									c5.6,6.1,20.8,6.7,38.5,7.5l6.5,0.3c10.7,0.5,20.7,1,28.2,0c9.2-1.2,13.4-4.5,13.7-10.7c0.3-6.5-4-12.9-12-18
									c-8.2-5.2-19.4-8.4-31.4-8.9C629.1,584.5,624.5,584.7,620.1,585.3z"/>
							</g>
						</g>
					</g>
				</g>
				<g>
					<g>
						<g>
							<path class="st0" d="M597.4,608.7l8.9,3.9c0,0,12.2-19.3,27-19.5C633.3,593.1,610.8,594.1,597.4,608.7z"/>
						</g>
					</g>
				</g>
			</g>
			<g>
				<g>
					<g>
						<g>
							<path class="st0" d="M627.8,553.6c-0.4,17.1-24.6,15.8-54.6,15.1c-29.9-0.6-54.2-0.3-53.9-17.4c0.4-17.1,24.9-30.4,54.9-29.8
								C604.1,522.1,628.1,536.5,627.8,553.6z"/>
						</g>
					</g>
				</g>
				<g>
					<g>
						<g>
							<g>
								<path class="st4" d="M625.3,553.6c-0.4,17.1-24.6,15.8-54.6,15.1c-29.9-0.6-54.2-0.3-53.9-17.4
									c0.4-17.1,24.9-30.4,54.9-29.8C601.7,522.1,625.7,536.5,625.3,553.6z"/>
							</g>
						</g>
					</g>
					<g>
						<g>
							<g>
								<path class="st0" d="M589.6,570.3c-4.7,0-9.7-0.1-15-0.2l-7.7-0.2c-22.4-0.4-40.1-0.8-47.6-8.6c-2.5-2.6-3.7-6-3.6-10
									c0.4-17.8,25.2-31.6,56.1-31c30.6,0.6,55.1,15.6,54.7,33.3C626.2,569,608.1,570.3,589.6,570.3z M569.7,522.7
									c-28.1,0-51.3,12.8-51.6,28.6c-0.1,3.4,0.9,6.1,3,8.3c6.8,7.1,24.9,7.5,45.9,7.9l7.7,0.2c5.3,0.1,10.2,0.2,14.9,0.2
									c21.1,0,34.3-2.4,34.5-14.3c0.3-16.4-23.1-30.2-52.4-30.9C571.1,522.7,570.4,522.7,569.7,522.7z"/>
							</g>
						</g>
					</g>
				</g>
				<g>
					<g>
						<g>
							<path class="st0" d="M529.5,552.4l10.7,4.3c0,0,13.9-23.1,31.4-23.8C571.5,532.9,545,534.7,529.5,552.4z"/>
						</g>
					</g>
				</g>
			</g>
		</g>
		<g>
			<g>
				<path class="st2" d="M731.3,685.3c-233.7,69.6-470.2-168.8-470.2-168.8l68.6-3.4c0,0,199.8,227.3,399,164.3l-20.1-16.6l114.8-7
					l-95.3,55.6L731.3,685.3z"/>
				<path class="st0" d="M726.9,711.4l3.2-24.7c-28,8.2-57.6,12.3-87.8,12.3c-46,0-94.7-9.6-144.8-28.4c-40-15.1-81-36.1-121.8-62.5
					c-69.4-44.9-114.9-90.5-115.3-90.9l-1.6-1.6l71.3-3.5l0.3,0.4c0.4,0.4,39.2,44.3,98.5,87.5c54.7,39.9,138.5,87.5,227.4,87.5
					c24.2,0,47.8-3.5,70.4-10.4l-20.6-17l121.5-7.5L726.9,711.4z M732.5,683.9l-3.1,23.7l89.9-52.5l-108,6.6l19.5,16.1l-1.8,0.6
					c-23.3,7.4-47.7,11.1-72.7,11.1c-39.5,0-81.3-9.2-124.2-27.5c-34.3-14.6-69.4-34.9-104.4-60.4c-56.6-41.3-94.6-83.1-98.4-87.5
					l-65.9,3.2c8.7,8.4,51.5,49,113.4,89.1c63.9,41.3,161.8,90.6,265.5,90.6c30.6,0,60.4-4.3,88.7-12.7L732.5,683.9z"/>
			</g>
		</g>
		<g>
			<g class="st5">
				<path class="st6" d="M919.8,755.6l-3.1-69.6l-63.9,28.6c0,0,0,0-0.9,44.2C869.7,769,919.8,755.6,919.8,755.6z"/>
			</g>
			<g class="st5">
				<path class="st6" d="M824.4,765.4c-0.6-13.1-1.2-27.2-1.9-42.5c-24.5,9.7-70.3,18.9-70.3,18.9l-0.9,27.5
					C751.4,769.2,797.7,775.7,824.4,765.4z"/>
			</g>
		</g>
		<g>
			<g>
				<g>
					<g class="st5">
						<g>
							<polygon class="st6" points="915.2,573.3 903.2,429.9 923.3,440.8 882.2,284.6 839.9,438.7 861.9,433.3 855,574.5 							"/>
						</g>
					</g>
				</g>
				<path class="st0" d="M854.6,576l0.1-1.1l6.9-139.8l-22.3,5.5l43.7-159.4l42.6,162.1L905,432.2l12,142.6L854.6,576z M863.6,432.5
					L856.7,574l58.1-1.2l-12.1-144.1l19.7,10.7L882.9,289L842,437.9L863.6,432.5z"/>
			</g>
			<g>
				<g>
					<g class="st5">
						<g>
							<polygon class="st6" points="819.2,611.3 812.3,424.6 835,437.4 790.1,254.3 740.8,435 761.6,424.3 753.1,615.8 							"/>
						</g>
					</g>
				</g>
				<path class="st0" d="M752.1,616l0-1.1l8.4-189.8L739.3,436l50.9-186.6l46.4,189.1l-23.1-13l6.9,185.9L752.1,616z M762.7,421.7
					l-8.5,192.1l64-4.3L811.3,422l22.2,12.5l-43.4-177.2l-47.7,174.8L762.7,421.7z"/>
			</g>
		</g>
	</g>
</g>
<g id="text">
	<g>
		<path class="st7" d="M761.2,165.3h15.2c3.6,0,6.3,0.3,8.1,0.8c1.8,0.6,3.3,1.8,4.6,3.7c1.2,1.9,1.8,4.3,1.8,7.1
			c0,5-2.1,8.2-6.4,9.6c5,1.8,7.6,5.4,7.6,10.9c0,2.9-0.7,5.3-2.1,7.3c-1.4,2-3.1,3.3-5.1,4c-2,0.7-4.9,1-8.6,1h-15.2V165.3z
			 M770.6,183.3h3.2c3.2,0,5.1-0.6,6-1.7c0.8-1.1,1.2-2.4,1.2-3.9c0-1.3-0.4-2.5-1.2-3.6c-0.8-1.1-2.6-1.6-5.2-1.6h-3.9V183.3z
			 M770.6,202.2h4.8c4.5,0,6.8-1.9,6.8-5.8c0-2.2-0.6-3.7-1.7-4.6c-1.1-0.9-2.8-1.3-5.1-1.3h-4.8V202.2z"/>
		<path class="st7" d="M798,176.9h8.1v8c1.5-5.6,4.1-8.4,7.8-8.4c0.5,0,1,0.1,1.6,0.2v9c-0.7-0.1-1.2-0.1-1.5-0.1
			c-4.5,0-6.7,3.4-6.7,10.2v14.2H798V176.9z"/>
		<path class="st7" d="M843.8,194.9h-17.3v1.8c0,2.9,0.4,4.9,1.2,5.9c0.8,1,1.9,1.5,3.2,1.5c2.8,0,4.4-1.9,4.7-5.6l8.2,0.5
			c-1.5,7.7-5.8,11.5-13.1,11.5c-4.5,0-7.9-1.5-10.2-4.5c-2.3-3-3.5-7.1-3.5-12.1c0-5.7,1.2-10.1,3.7-13.1c2.5-3,5.8-4.5,9.9-4.5
			c3.7,0,6.9,1.3,9.4,4C842.6,182.9,843.8,187.8,843.8,194.9z M835.1,189.6c0-0.4,0-0.7,0-0.9c0-4.2-1.4-6.4-4.3-6.4
			c-2.8,0-4.2,2.4-4.3,7.3H835.1z"/>
		<path class="st7" d="M858,187.3l-8.7-0.8c0.4-3.3,1.8-5.9,4.2-7.6c2.4-1.8,5.4-2.7,9.1-2.7c3.1,0,5.6,0.6,7.4,1.8
			c1.9,1.2,3.1,2.6,3.5,4.1c0.5,1.6,0.7,4,0.7,7.3v13.1c0,4.1,0.2,6.5,0.6,7.3h-8.5c-0.3-0.9-0.5-2.6-0.5-5.1c-2,3.8-5,5.7-9,5.7
			c-2.6,0-4.6-0.8-6.3-2.3c-1.6-1.5-2.4-3.8-2.4-6.7c0-3.7,1.2-6.5,3.6-8.5c2.4-2,6.9-3.2,13.3-3.6v-1.2c0-2.2-0.2-3.7-0.7-4.6
			c-0.4-0.8-1.3-1.3-2.6-1.3C859.5,182.3,858.3,184,858,187.3z M865.1,194.1c-2.7,0.3-4.6,0.9-5.7,1.8c-1.1,0.9-1.7,2.4-1.7,4.4
			c0,2.8,1,4.2,3.1,4.2c1.1,0,2.1-0.6,3-1.9c0.9-1.2,1.4-3.5,1.4-6.9V194.1z"/>
		<path class="st7" d="M882.5,166.7l8.9-0.3v10.4h6.1v7.2h-6.1v12.1c0,2.2,0,3.7,0.1,4.4c0.1,0.7,0.4,1.2,1,1.7
			c0.6,0.4,1.5,0.7,2.8,0.7c0.7,0,1.6,0,2.6-0.1v7c-2,0.5-3.9,0.7-5.6,0.7c-2.8,0-4.9-0.5-6.4-1.6c-1.5-1.1-2.4-2.4-2.8-4
			c-0.4-1.6-0.6-4.2-0.6-7.7v-13.1h-3.7v-7.2h3.7V166.7z"/>
		<path class="st7" d="M901.6,165.3h9.2v15.1c1.7-2.8,4.3-4.2,8.1-4.2c2.2,0,4,0.5,5.3,1.6c1.3,1,2.1,2.4,2.5,4
			c0.3,1.6,0.5,3.9,0.5,7v21.1H918v-21.2c0-2.2-0.2-3.6-0.6-4.3c-0.4-0.7-1.2-1.1-2.5-1.1c-1.2,0-2.2,0.3-3,1
			c-0.7,0.7-1.1,2.2-1.1,4.6v20.9h-9.2V165.3z"/>
		<path class="st7" d="M942.3,187.3l-8.7-0.8c0.4-3.3,1.8-5.9,4.2-7.6c2.4-1.8,5.4-2.7,9.1-2.7c3.1,0,5.6,0.6,7.4,1.8
			c1.9,1.2,3.1,2.6,3.5,4.1c0.5,1.6,0.7,4,0.7,7.3v13.1c0,4.1,0.2,6.5,0.6,7.3h-8.5c-0.3-0.9-0.5-2.6-0.5-5.1c-2,3.8-5,5.7-9,5.7
			c-2.6,0-4.6-0.8-6.3-2.3c-1.6-1.5-2.4-3.8-2.4-6.7c0-3.7,1.2-6.5,3.6-8.5c2.4-2,6.9-3.2,13.3-3.6v-1.2c0-2.2-0.2-3.7-0.7-4.6
			c-0.4-0.8-1.3-1.3-2.6-1.3C943.8,182.3,942.5,184,942.3,187.3z M949.4,194.1c-2.7,0.3-4.6,0.9-5.7,1.8c-1.1,0.9-1.7,2.4-1.7,4.4
			c0,2.8,1,4.2,3.1,4.2c1.1,0,2.1-0.6,3-1.9c0.9-1.2,1.4-3.5,1.4-6.9V194.1z"/>
		<path class="st7" d="M965.3,165.3h9V180c1.8-2.4,4.1-3.6,6.8-3.6c3,0,5.6,1.4,7.6,4.1c2,2.7,3,6.9,3,12.6c0,5.5-1,9.7-3,12.8
			c-2,3.1-4.9,4.6-8.7,4.6c-3.7,0-6.3-1.7-7.7-5c-0.6,1.1-1.2,2.6-1.7,4.3h-5.4V165.3z M974.4,196.1c0,3,0.3,5.1,0.8,6.3
			c0.6,1.2,1.6,1.7,3,1.7c1.6,0,2.7-0.8,3.2-2.5c0.6-1.6,0.9-4.4,0.9-8.3c0-3.8-0.3-6.5-0.8-8.2c-0.6-1.7-1.6-2.6-3.1-2.6
			c-2.7,0-4,2-4,6V196.1z"/>
		<path class="st7" d="M997.2,165.3h9.2v44.5h-9.2V165.3z"/>
		<path class="st7" d="M1038.5,194.9h-17.3v1.8c0,2.9,0.4,4.9,1.2,5.9c0.8,1,1.9,1.5,3.2,1.5c2.8,0,4.4-1.9,4.7-5.6l8.2,0.5
			c-1.5,7.7-5.8,11.5-13.1,11.5c-4.5,0-7.9-1.5-10.2-4.5c-2.3-3-3.5-7.1-3.5-12.1c0-5.7,1.2-10.1,3.7-13.1c2.5-3,5.8-4.5,9.9-4.5
			c3.7,0,6.9,1.3,9.4,4C1037.2,182.9,1038.5,187.8,1038.5,194.9z M1029.8,189.6c0-0.4,0-0.7,0-0.9c0-4.2-1.4-6.4-4.3-6.4
			c-2.8,0-4.2,2.4-4.3,7.3H1029.8z"/>
	</g>
	<g>
		<path class="st7" d="M126.4,401.3h10l4.7,30.8l5.8-30.8h9l5.5,31l5.4-31h8.2l-9.6,44.8h-8.8l-5.9-31l-6.1,31h-8.7L126.4,401.3z"/>
		<path class="st7" d="M187.2,410.2h-9.3V401h9.3V410.2z M177.9,412.9h9.2v33h-9.2V412.9z"/>
		<path class="st7" d="M193.9,412.9h8.7v4.5c1.5-3.4,4.3-5.2,8.3-5.2c2.2,0,3.9,0.5,5.3,1.5c1.4,1,2.3,2.2,2.7,3.7
			c0.4,1.5,0.6,3.8,0.6,6.9v21.6h-9.2v-21.6c0-2.2-0.3-3.6-0.8-4.1c-0.6-0.5-1.3-0.8-2.3-0.8c-1.7,0-2.7,0.5-3.3,1.5
			c-0.5,1-0.8,2.9-0.8,5.7v19.3h-9.2V412.9z"/>
		<path class="st7" d="M241.9,401.3h9v44.5h-8.5v-5.4c-1.4,3.9-3.9,5.9-7.5,5.9c-3.5,0-6.2-1.5-7.9-4.6c-1.7-3.1-2.6-7.1-2.6-12.2
			c0-5.7,1-10,3-12.8c2-2.8,4.6-4.2,8-4.2c3.1,0,5.3,1.2,6.6,3.5V401.3z M241.9,426.6c0-3.2-0.3-5.4-1-6.5c-0.7-1.1-1.7-1.6-3-1.6
			c-1.6,0-2.6,0.8-3.2,2.3c-0.6,1.5-0.8,4.7-0.8,9.4c0,3.6,0.3,6.1,0.9,7.5c0.6,1.4,1.6,2.1,3,2.1c1.2,0,2.2-0.5,2.9-1.4
			c0.8-1,1.2-2.9,1.2-5.9V426.6z"/>
		<path class="st7" d="M257.6,412.9h8.5v4.9c1.8-3.6,4.3-5.4,7.5-5.4c3,0,5.5,1.3,7.5,4c2,2.7,3,6.8,3,12.3c0,5.8-1,10.1-2.9,13.1
			s-4.7,4.4-8.2,4.4c-2.5,0-4.6-1-6.3-2.9V457h-9V412.9z M266.7,432.3c0,3.1,0.3,5.2,0.8,6.1c0.5,0.9,1.5,1.4,3.1,1.4
			c1.4,0,2.4-0.6,3.1-1.9c0.7-1.3,1-4.3,1-9.2c0-4-0.3-6.8-0.9-8.2c-0.6-1.4-1.6-2.2-3-2.2c-1.1,0-2.1,0.5-2.9,1.4
			c-0.8,0.9-1.2,3-1.2,6.3V432.3z"/>
		<path class="st7" d="M289.5,412.9h8.1v8c1.5-5.6,4.1-8.4,7.8-8.4c0.5,0,1,0.1,1.6,0.2v9c-0.7-0.1-1.2-0.1-1.5-0.1
			c-4.5,0-6.7,3.4-6.7,10.2v14.2h-9.2V412.9z"/>
		<path class="st7" d="M336,429.3c0,11.4-4.5,17.2-13.4,17.2c-8.9,0-13.4-5.7-13.4-17.2c0-11.4,4.5-17.1,13.4-17.1
			C331.5,412.2,336,417.9,336,429.3z M326.5,429.4c0-4.2-0.3-7-0.9-8.5c-0.6-1.5-1.6-2.2-3-2.2c-1.4,0-2.4,0.7-3,2.1
			c-0.6,1.4-0.9,4.3-0.9,8.6c0,4,0.3,6.8,0.8,8.4c0.5,1.6,1.6,2.4,3.1,2.4c1.5,0,2.5-0.8,3.1-2.3
			C326.2,436.2,326.5,433.4,326.5,429.4z"/>
		<path class="st7" d="M366.7,429.3c0,11.4-4.5,17.2-13.4,17.2c-8.9,0-13.4-5.7-13.4-17.2c0-11.4,4.5-17.1,13.4-17.1
			C362.3,412.2,366.7,417.9,366.7,429.3z M357.2,429.4c0-4.2-0.3-7-0.9-8.5c-0.6-1.5-1.6-2.2-3-2.2c-1.4,0-2.4,0.7-3,2.1
			c-0.6,1.4-0.9,4.3-0.9,8.6c0,4,0.3,6.8,0.8,8.4c0.5,1.6,1.6,2.4,3.1,2.4c1.5,0,2.5-0.8,3.1-2.3C357,436.2,357.2,433.4,357.2,429.4
			z"/>
		<path class="st7" d="M382.5,412.9h5.8v7.2h-5.8v25.7h-8.8v-25.7h-3.8v-7.2h3.8c0-3.2,0.3-5.7,0.8-7.3c0.5-1.6,1.5-3,3.1-4.2
			c1.6-1.2,3.8-1.8,6.5-1.8c1.6,0,3.2,0.1,4.6,0.3v7.2c-0.7-0.1-1.4-0.1-2.1-0.1c-1.8,0-2.9,0.4-3.4,1.1
			C382.7,408.8,382.5,410.4,382.5,412.9z"/>
	</g>
	<g>
		<path class="st7" d="M465.4,147.9h10l4.7,30.8l5.8-30.8h9l5.5,31l5.4-31h8.2l-9.6,44.8h-8.8l-5.9-31l-6.1,31h-8.7L465.4,147.9z"/>
		<path class="st7" d="M524.5,169.9l-8.7-0.8c0.4-3.3,1.8-5.9,4.2-7.6c2.4-1.8,5.4-2.7,9.1-2.7c3.1,0,5.6,0.6,7.4,1.8
			c1.9,1.2,3.1,2.6,3.5,4.1c0.5,1.6,0.7,4,0.7,7.3v13.1c0,4.1,0.2,6.5,0.6,7.3h-8.5c-0.3-0.9-0.5-2.6-0.5-5.1c-2,3.8-5,5.7-9,5.7
			c-2.6,0-4.6-0.8-6.3-2.3c-1.6-1.5-2.4-3.8-2.4-6.7c0-3.7,1.2-6.5,3.6-8.5c2.4-2,6.9-3.2,13.3-3.6v-1.2c0-2.2-0.2-3.7-0.7-4.6
			c-0.4-0.8-1.3-1.3-2.6-1.3C526,164.9,524.8,166.5,524.5,169.9z M531.6,176.7c-2.7,0.3-4.6,0.9-5.7,1.8c-1.1,0.9-1.7,2.4-1.7,4.4
			c0,2.8,1,4.2,3.1,4.2c1.1,0,2.1-0.6,3-1.9c0.9-1.2,1.4-3.5,1.4-6.9V176.7z"/>
		<path class="st7" d="M549,149.3l8.9-0.3v10.4h6.1v7.2h-6.1v12.1c0,2.2,0,3.7,0.1,4.4c0.1,0.7,0.4,1.2,1,1.7s1.5,0.7,2.8,0.7
			c0.7,0,1.6,0,2.6-0.1v7c-2,0.5-3.9,0.7-5.6,0.7c-2.8,0-4.9-0.5-6.4-1.6c-1.5-1.1-2.4-2.4-2.8-4c-0.4-1.6-0.6-4.2-0.6-7.7v-13.1
			h-3.7v-7.2h3.7V149.3z"/>
		<path class="st7" d="M593.4,177.5h-17.3v1.8c0,2.9,0.4,4.9,1.2,5.9c0.8,1,1.9,1.5,3.2,1.5c2.8,0,4.4-1.9,4.7-5.6l8.2,0.5
			c-1.5,7.7-5.8,11.5-13.1,11.5c-4.5,0-7.9-1.5-10.2-4.5c-2.3-3-3.5-7.1-3.5-12.1c0-5.7,1.2-10.1,3.7-13.1c2.5-3,5.8-4.5,9.9-4.5
			c3.7,0,6.9,1.3,9.4,4C592.2,165.5,593.4,170.3,593.4,177.5z M584.7,172.1c0-0.4,0-0.7,0-0.9c0-4.2-1.4-6.4-4.3-6.4
			c-2.8,0-4.2,2.4-4.3,7.3H584.7z"/>
		<path class="st7" d="M598.8,159.4h8.1v8c1.5-5.6,4.1-8.4,7.8-8.4c0.5,0,1,0.1,1.6,0.2v9c-0.7-0.1-1.2-0.1-1.5-0.1
			c-4.5,0-6.7,3.4-6.7,10.2v14.2h-9.2V159.4z"/>
		<path class="st7" d="M469.2,239.6h8.1v8c1.5-5.6,4.1-8.4,7.8-8.4c0.5,0,1,0.1,1.6,0.2v9c-0.7-0.1-1.2-0.1-1.5-0.1
			c-4.5,0-6.7,3.4-6.7,10.2v14.2h-9.2V239.6z"/>
		<path class="st7" d="M515,257.6h-17.3v1.8c0,2.9,0.4,4.9,1.2,5.9c0.8,1,1.9,1.5,3.2,1.5c2.8,0,4.4-1.9,4.7-5.6l8.2,0.5
			c-1.5,7.7-5.8,11.5-13.1,11.5c-4.5,0-7.9-1.5-10.2-4.5c-2.3-3-3.5-7.1-3.5-12.1c0-5.7,1.2-10.1,3.7-13.1c2.5-3,5.8-4.5,9.9-4.5
			c3.7,0,6.9,1.3,9.4,4C513.8,245.6,515,250.5,515,257.6z M506.3,252.3c0-0.4,0-0.7,0-0.9c0-4.2-1.4-6.4-4.3-6.4
			c-2.8,0-4.2,2.4-4.3,7.3H506.3z"/>
		<path class="st7" d="M542.1,247.6l-6.6,2c-0.9-3-2.5-4.5-4.8-4.5c-1.9,0-2.9,1-2.9,2.9c0,1.1,0.4,1.9,1.1,2.5
			c0.7,0.6,2.2,1.2,4.4,2c2.5,0.9,4.4,1.7,5.5,2.3c1.2,0.7,2.2,1.7,3,3.1c0.8,1.4,1.2,2.9,1.2,4.7c0,3-1.1,5.6-3.3,7.7
			c-2.2,2.1-5.3,3.1-9.2,3.1c-7.4,0-11.5-3.3-12.3-9.8l7.3-1.2c0.6,3.3,2.3,4.9,5.2,4.9c2.4,0,3.7-1,3.7-3.1c0-1.1-0.4-1.9-1.1-2.5
			c-0.7-0.6-2.1-1.2-4.2-1.8c-3.8-1.2-6.4-2.7-7.8-4.4c-1.4-1.7-2.1-3.7-2.1-6c0-3.2,1.1-5.7,3.3-7.6c2.2-1.9,5-2.9,8.4-2.9
			C536.8,238.9,540.5,241.8,542.1,247.6z"/>
		<path class="st7" d="M556.9,236.9h-9.3v-9.1h9.3V236.9z M547.7,239.6h9.2v33h-9.2V239.6z"/>
		<path class="st7" d="M585.4,247.6l-6.6,2c-0.9-3-2.5-4.5-4.8-4.5c-1.9,0-2.9,1-2.9,2.9c0,1.1,0.4,1.9,1.1,2.5
			c0.7,0.6,2.2,1.2,4.4,2c2.5,0.9,4.4,1.7,5.5,2.3c1.2,0.7,2.2,1.7,3,3.1c0.8,1.4,1.2,2.9,1.2,4.7c0,3-1.1,5.6-3.3,7.7
			c-2.2,2.1-5.3,3.1-9.2,3.1c-7.4,0-11.5-3.3-12.3-9.8l7.3-1.2c0.6,3.3,2.3,4.9,5.2,4.9c2.4,0,3.7-1,3.7-3.1c0-1.1-0.4-1.9-1.1-2.5
			c-0.7-0.6-2.1-1.2-4.2-1.8c-3.8-1.2-6.4-2.7-7.8-4.4c-1.4-1.7-2.1-3.7-2.1-6c0-3.2,1.1-5.7,3.3-7.6c2.2-1.9,5-2.9,8.4-2.9
			C580.1,238.9,583.8,241.8,585.4,247.6z"/>
		<path class="st7" d="M592.6,229.5l8.9-0.3v10.4h6.1v7.2h-6.1V259c0,2.2,0,3.7,0.1,4.4c0.1,0.7,0.4,1.2,1,1.7
			c0.6,0.4,1.5,0.7,2.8,0.7c0.7,0,1.6,0,2.6-0.1v7c-2,0.5-3.9,0.7-5.6,0.7c-2.8,0-4.9-0.5-6.4-1.6c-1.5-1.1-2.4-2.4-2.8-4
			c-0.4-1.6-0.6-4.2-0.6-7.7v-13.1h-3.7v-7.2h3.7V229.5z"/>
		<path class="st7" d="M621.1,250.1l-8.7-0.8c0.4-3.3,1.8-5.9,4.2-7.6c2.4-1.8,5.4-2.7,9.1-2.7c3.1,0,5.6,0.6,7.4,1.8
			c1.9,1.2,3.1,2.6,3.5,4.1c0.5,1.6,0.7,4,0.7,7.3v13.1c0,4.1,0.2,6.5,0.6,7.3h-8.5c-0.3-0.9-0.5-2.6-0.5-5.1c-2,3.8-5,5.7-9,5.7
			c-2.6,0-4.6-0.8-6.3-2.3c-1.6-1.5-2.4-3.8-2.4-6.7c0-3.7,1.2-6.5,3.6-8.5c2.4-2,6.9-3.2,13.3-3.6v-1.2c0-2.2-0.2-3.7-0.7-4.6
			c-0.4-0.8-1.3-1.3-2.6-1.3C622.6,245,621.3,246.7,621.1,250.1z M628.2,256.9c-2.7,0.3-4.6,0.9-5.7,1.8c-1.1,0.9-1.7,2.4-1.7,4.4
			c0,2.8,1,4.2,3.1,4.2c1.1,0,2.1-0.6,3-1.9c0.9-1.2,1.4-3.5,1.4-6.9V256.9z"/>
		<path class="st7" d="M644.2,239.6h8.7v4.5c1.5-3.4,4.3-5.2,8.3-5.2c2.2,0,3.9,0.5,5.3,1.5c1.4,1,2.3,2.2,2.7,3.7
			c0.4,1.5,0.6,3.8,0.6,6.9v21.6h-9.2V251c0-2.2-0.3-3.6-0.8-4.1c-0.6-0.5-1.3-0.8-2.3-0.8c-1.7,0-2.7,0.5-3.3,1.5
			c-0.5,1-0.8,2.9-0.8,5.7v19.3h-9.2V239.6z"/>
		<path class="st7" d="M677.4,229.5l8.9-0.3v10.4h6.1v7.2h-6.1V259c0,2.2,0,3.7,0.1,4.4c0.1,0.7,0.4,1.2,1,1.7
			c0.6,0.4,1.5,0.7,2.8,0.7c0.7,0,1.6,0,2.6-0.1v7c-2,0.5-3.9,0.7-5.6,0.7c-2.8,0-4.9-0.5-6.4-1.6c-1.5-1.1-2.4-2.4-2.8-4
			c-0.4-1.6-0.6-4.2-0.6-7.7v-13.1h-3.7v-7.2h3.7V229.5z"/>
	</g>
</g>
</svg>
