<svg xmlns="http://www.w3.org/2000/svg" width="436" height="415" viewBox="0 0 436 415">
  <g id="Polygon_1" data-name="Polygon 1" fill="none">
    <path d="M203.516,30.853a16,16,0,0,1,28.967,0l47.172,100.488a16,16,0,0,0,12.486,9.076l110.091,13.85a16,16,0,0,1,8.953,27.541l-80.948,75.984a16,16,0,0,0-4.765,14.671l20.86,109.078A16,16,0,0,1,322.9,398.561l-97.175-53.544a16,16,0,0,0-15.443,0L113.1,398.561a16,16,0,0,1-23.437-17.019l20.86-109.078a16,16,0,0,0-4.765-14.671L24.814,181.808a16,16,0,0,1,8.953-27.541l110.091-13.85a16,16,0,0,0,12.486-9.076Z" stroke="none"/>
    <path d="M 218 33.65240478515625 C 217.0509338378906 33.65240478515625 215.3186187744141 33.95123291015625 214.3791198730469 35.95260620117188 L 167.2068176269531 136.4407348632812 C 163.1039428710938 145.1806640625 154.935302734375 151.1181030273438 145.3558044433594 152.3232727050781 L 35.26507568359375 166.1737670898438 C 33.07281494140625 166.4495849609375 32.25357055664062 168.00390625 31.9603271484375 168.9059143066406 C 31.6671142578125 169.8078460693359 31.41574096679688 171.5467834472656 33.02676391601562 173.0589752197266 L 113.9750671386719 249.043212890625 C 121.0081787109375 255.6450958251953 124.1253662109375 265.2430419921875 122.3135070800781 274.7175903320312 L 101.4534912109375 383.7958374023438 C 101.21337890625 385.0517272949219 101.4678649902344 386.1111450195312 102.2315673828125 387.0347900390625 C 103.0231323242188 387.9920349121094 104.2313842773438 388.586669921875 105.3848876953125 388.586669921875 C 106.0274353027344 388.586669921875 106.6580505371094 388.4112854003906 107.3126831054688 388.0505981445312 L 204.4873809814453 334.5069580078125 C 208.6148071289062 332.2327270507812 213.2874450683594 331.0305786132812 218 331.0305786132812 C 222.7124938964844 331.0305786132812 227.3850555419922 332.232666015625 231.5126190185547 334.5069580078125 L 328.6871337890625 388.0504760742188 C 329.3419189453125 388.4112854003906 329.9725646972656 388.586669921875 330.6151123046875 388.586669921875 C 331.7681884765625 388.586669921875 332.9763793945312 387.9918518066406 333.76806640625 387.034423828125 C 334.531982421875 386.1105346679688 334.78662109375 385.0512084960938 334.5465087890625 383.7957763671875 L 313.6864929199219 274.7175903320312 C 311.8746337890625 265.2429809570312 314.9918212890625 255.6450347900391 322.0250549316406 249.043212890625 L 402.9731750488281 173.0589752197266 C 404.5841979980469 171.5467224121094 404.3328857421875 169.8077850341797 404.0396118164062 168.9058380126953 C 403.7464294433594 168.00390625 402.9271850585938 166.4495849609375 400.73486328125 166.1737670898438 L 290.6442565917969 152.3232727050781 C 281.0646362304688 151.1181030273438 272.89599609375 145.1806640625 268.7931823730469 136.4406433105469 L 221.6209411621094 35.95266723632812 C 220.6813812255859 33.95123291015625 218.9490051269531 33.65240478515625 218 33.65240478515625 M 217.9999694824219 21.65240478515625 C 223.8020172119141 21.65240478515625 229.6040649414062 24.71939086914062 232.4835662841797 30.85333251953125 L 279.6558837890625 131.3413391113281 C 281.9869384765625 136.3070983886719 286.6994323730469 139.732421875 292.1421813964844 140.4171447753906 L 402.2328186035156 154.2676696777344 C 415.6708068847656 155.9582824707031 421.0609436035156 172.5388488769531 411.1859436035156 181.8082885742188 L 330.2378234863281 257.7925415039062 C 326.2413024902344 261.5439147949219 324.443359375 267.0798950195312 325.4729309082031 272.4635925292969 L 346.3329467773438 381.5417785644531 C 348.3348999023438 392.0101928710938 340.02734375 400.5866394042969 330.6151123046875 400.5866394042969 C 328.0619506835938 400.5866394042969 325.4283447265625 399.9559326171875 322.8961791992188 398.5607299804688 L 225.7214965820312 345.01708984375 C 223.3180236816406 343.6927795410156 220.6590118408203 343.0306396484375 218 343.0306396484375 C 215.3409881591797 343.0306396484375 212.6819763183594 343.6927795410156 210.2785034179688 345.01708984375 L 113.1038208007812 398.5607299804688 C 110.5723571777344 399.9555358886719 107.9373779296875 400.5866394042969 105.3848876953125 400.5866394042969 C 95.9718017578125 400.5866394042969 87.66500854492188 392.0110168457031 89.6671142578125 381.5418395996094 L 110.5270690917969 272.4635925292969 C 111.5566101074219 267.0798950195312 109.7586975097656 261.5439147949219 105.7622375488281 257.7925415039062 L 24.81399536132812 181.8082885742188 C 14.93899536132812 172.5388488769531 20.32919311523438 155.9582824707031 33.76718139648438 154.2676696777344 L 143.8578796386719 140.4171447753906 C 149.3005676269531 139.732421875 154.0130615234375 136.3070983886719 156.3441772460938 131.3413391113281 L 203.5164337158203 30.85333251953125 C 206.3959045410156 24.71939086914062 212.1979370117188 21.65240478515625 217.9999694824219 21.65240478515625 Z" stroke="none" fill="#ffa808"/>
  </g>
</svg>
