<svg xmlns="http://www.w3.org/2000/svg" width="436" height="415" viewBox="0 0 436 415">
  <path id="Polygon_2" data-name="Polygon 2" d="M203.516,30.853a16,16,0,0,1,28.967,0l47.172,100.488a16,16,0,0,0,12.486,9.076l110.091,13.85a16,16,0,0,1,8.953,27.541l-80.948,75.984a16,16,0,0,0-4.765,14.671l20.86,109.078A16,16,0,0,1,322.9,398.561l-97.175-53.544a16,16,0,0,0-15.443,0L113.1,398.561a16,16,0,0,1-23.437-17.019l20.86-109.078a16,16,0,0,0-4.765-14.671L24.814,181.808a16,16,0,0,1,8.953-27.541l110.091-13.85a16,16,0,0,0,12.486-9.076Z" fill="#ffa808"/>
</svg>
