<svg xmlns="http://www.w3.org/2000/svg" width="64" height="64" viewBox="0 0 64 64"><path d="M32 49c9.374 0 17-7.626 17-17s-7.626-17-17-17-17 7.626-17 17 7.626 17 17 17zm0-32c8.271 0 15 6.729 15 15s-6.729 15-15 15-15-6.729-15-15 6.729-15 15-15zM31 0h2v10h-2zM31 54h2v10h-2zM54 31h10v2H54zM0 31h10v2H0z"/><path d="M49.5 9.964h2v7.071h-2z" transform="rotate(45.001 50.5 13.5)"/><path d="M12.5 46.964h2v7.071h-2z" transform="rotate(45.001 13.5 50.5)"/><path d="M46.964 49.5h7.071v2h-7.071z" transform="rotate(-134.999 50.5 50.5)"/><path d="M9.964 12.5h7.071v2H9.964z" transform="rotate(45.001 13.5 13.5)"/></svg>