<svg xmlns="http://www.w3.org/2000/svg" enable-background="new 0 0 100 100" viewBox="0 0 100 100"><path d="M67.83,39H85c5.51,0,10-4.49,10-10s-4.49-10-10-10s-10,4.49-10,10c0,1.1,0.9,2,2,2s2-0.9,2-2c0-3.31,2.69-6,6-6s6,2.69,6,6
	s-2.69,6-6,6H68.86c0.08-0.67,0.14-1.34,0.14-2.04c0-8.84-7.08-16.04-15.79-16.04c-1.87,0-3.72,0.34-5.47,1
	C45.78,10.4,39.06,5,31.14,5c-9.47,0-17.17,7.82-17.17,17.44c0,0.25,0.01,0.51,0.02,0.77C8.68,24.95,5,29.97,5,35.77
	C5,43.07,10.85,49,18.03,49H43h10.21H83c1.1,0,2-0.9,2-2s-0.9-2-2-2H63.61C65.44,43.37,66.9,41.32,67.83,39z M43,45H18.03
	C13.05,45,9,40.86,9,35.77c0-4.49,3.15-8.31,7.48-9.08c1.06-0.19,1.79-1.19,1.63-2.26c-0.1-0.66-0.15-1.34-0.15-2
	C17.97,15.03,23.87,9,31.14,9c6.79,0,12.42,5.19,13.1,12.07c0.07,0.68,0.48,1.28,1.09,1.59c0.61,0.31,1.34,0.28,1.93-0.07
	c1.81-1.08,3.87-1.66,5.95-1.66c6.5,0,11.79,5.4,11.79,12.04c0,0.69-0.07,1.37-0.18,2.04H37c-1.1,0-2,0.9-2,2s0.9,2,2,2h26.39
	c-2.05,3.58-5.84,6-10.19,6H43z M94.41,45.58C94.79,45.96,95,46.47,95,47c0,0.53-0.21,1.04-0.59,1.41C94.04,48.79,93.53,49,93,49
	c-0.13,0-0.26-0.01-0.39-0.04c-0.13-0.02-0.26-0.06-0.38-0.11c-0.12-0.05-0.23-0.11-0.34-0.19c-0.11-0.07-0.21-0.15-0.3-0.25
	C91.21,48.04,91,47.53,91,47c0-0.53,0.21-1.04,0.59-1.42c0.09-0.09,0.19-0.17,0.3-0.24c0.11-0.08,0.22-0.14,0.34-0.19
	c0.12-0.05,0.25-0.09,0.38-0.11C93.26,44.91,93.95,45.12,94.41,45.58z M64.23,76.14c0.47,1,0.05,2.19-0.95,2.66
	C63,78.94,62.71,79,62.42,79c-0.75,0-1.47-0.42-1.81-1.14l-2.84-6c-0.47-1-0.05-2.19,0.95-2.66c1-0.47,2.19-0.05,2.66,0.95
	L64.23,76.14z M55.7,62.81C55.42,62.94,55.13,63,54.84,63c-0.75,0-1.47-0.42-1.81-1.14l-2.84-6c-0.47-1-0.05-2.19,0.95-2.66
	c1-0.47,2.19-0.05,2.66,0.95l2.84,6C57.12,61.14,56.7,62.33,55.7,62.81z M71.81,92.14c0.47,1,0.05,2.19-0.95,2.66
	C70.58,94.94,70.29,95,70,95c-0.75,0-1.47-0.42-1.81-1.14l-2.84-6c-0.47-1-0.05-2.19,0.95-2.66c1-0.47,2.19-0.05,2.66,0.95
	L71.81,92.14z M54.23,76.14c0.47,1,0.05,2.19-0.95,2.66C53,78.94,52.71,79,52.42,79c-0.75,0-1.47-0.42-1.81-1.14l-2.84-6
	c-0.47-1-0.05-2.19,0.95-2.66c1-0.47,2.19-0.05,2.66,0.95L54.23,76.14z M61.81,92.14c0.47,1,0.05,2.19-0.95,2.66
	C60.58,94.94,60.29,95,60,95c-0.75,0-1.47-0.42-1.81-1.14l-2.84-6c-0.47-1-0.05-2.19,0.95-2.66c1-0.47,2.19-0.05,2.66,0.95
	L61.81,92.14z M45.7,62.81C45.42,62.94,45.13,63,44.84,63c-0.75,0-1.47-0.42-1.81-1.14l-2.84-6c-0.47-1-0.05-2.19,0.95-2.66
	c1-0.47,2.19-0.05,2.66,0.95l2.84,6C47.12,61.14,46.7,62.33,45.7,62.81z M44.23,76.14c0.47,1,0.05,2.19-0.95,2.66
	C43,78.94,42.71,79,42.42,79c-0.75,0-1.47-0.42-1.81-1.14l-2.84-6c-0.47-1-0.05-2.19,0.95-2.66c1-0.47,2.19-0.05,2.66,0.95
	L44.23,76.14z M51.81,92.14c0.47,1,0.05,2.19-0.95,2.66C50.58,94.94,50.29,95,50,95c-0.75,0-1.47-0.42-1.81-1.14l-2.84-6
	c-0.47-1-0.05-2.19,0.95-2.66c1-0.47,2.19-0.05,2.66,0.95L51.81,92.14z M35.7,62.81C35.42,62.94,35.13,63,34.84,63
	c-0.75,0-1.47-0.42-1.81-1.14l-2.84-6c-0.47-1-0.05-2.19,0.95-2.66c1-0.47,2.19-0.05,2.66,0.95l2.84,6
	C37.12,61.14,36.7,62.33,35.7,62.81z M41.81,92.14c0.47,1,0.05,2.19-0.95,2.66C40.58,94.94,40.29,95,40,95
	c-0.75,0-1.47-0.42-1.81-1.14l-2.84-6c-0.47-1-0.05-2.19,0.95-2.66c1-0.47,2.19-0.05,2.66,0.95L41.81,92.14z M34.23,76.14
	c0.47,1,0.05,2.19-0.95,2.66C33,78.94,32.71,79,32.42,79c-0.75,0-1.47-0.42-1.81-1.14l-2.84-6c-0.47-1-0.05-2.19,0.95-2.66
	c1-0.47,2.19-0.05,2.66,0.95L34.23,76.14z M26.65,60.14c0.47,1,0.05,2.19-0.95,2.66C25.42,62.94,25.13,63,24.84,63
	c-0.75,0-1.47-0.42-1.81-1.14l-2.84-6c-0.47-1-0.05-2.19,0.95-2.66c1-0.47,2.19-0.05,2.66,0.95L26.65,60.14z"/></svg>